# xmcd
#
# Track frame offsets:
#	150
#	14677
#	27635
#	43040
#
# Disc length: 792 seconds
#
# Revision: 0
# Processed by: cddbd v1.5.2PL0 Copyright (c) Steve Scherf et al.
# Submitted via: audiograbber 1.83.01
#
DISCID=31031604
DTITLE=The Stylistics - Can't Give You Anything (But My Love)(CD Single)
DYEAR=1975
DGENRE=Pop
TTITLE0=Can't Give You Anything (But My Love)
TTITLE1=Sing Baby Sing
TTITLE2=Funky Weekend
TTITLE3=Sixteen Bars
EXTD=
EXTT0=
EXTT1=
EXTT2=
EXTT3=
PLAYORDER=
